<?xml version="1.0" encoding="utf-8"?>
<svg version="1.1" xmlns:xlink="http://www.w3.org/1999/xlink" width="15px" height="17px" xmlns="http://www.w3.org/2000/svg">
  <g transform="matrix(1 0 0 1 -43 -267 )">
    <path d="M 4.16666666666667 5.40909090909091  L 4.16666666666667 7.72727272727273  L 10.8333333333333 7.72727272727273  L 10.8333333333333 5.40909090909091  C 10.8333333333333 4.55587121212121  10.5078125 3.82741477272727  9.85677083333333 3.22372159090909  C 9.20572916666667 2.62002840909091  8.42013888888889 2.31818181818182  7.5 2.31818181818182  C 6.57986111111111 2.31818181818182  5.79427083333333 2.62002840909091  5.14322916666667 3.22372159090909  C 4.4921875 3.82741477272727  4.16666666666667 4.55587121212121  4.16666666666667 5.40909090909091  Z M 14.6354166666667 8.06534090909091  C 14.8784722222222 8.2907196969697  15 8.56439393939394  15 8.88636363636364  L 15 15.8409090909091  C 15 16.1628787878788  14.8784722222222 16.436553030303  14.6354166666667 16.6619318181818  C 14.3923611111111 16.8873106060606  14.0972222222222 17  13.75 17  L 1.25 17  C 0.902777777777778 17  0.607638888888889 16.8873106060606  0.364583333333333 16.6619318181818  C 0.121527777777778 16.436553030303  0 16.1628787878788  0 15.8409090909091  L 0 8.88636363636364  C 0 8.56439393939394  0.121527777777778 8.2907196969697  0.364583333333333 8.06534090909091  C 0.607638888888889 7.83996212121212  0.902777777777778 7.72727272727273  1.25 7.72727272727273  L 1.66666666666667 7.72727272727273  L 1.66666666666667 5.40909090909091  C 1.66666666666667 3.9280303030303  2.23958333333333 2.65625  3.38541666666667 1.59375  C 4.53125 0.53125  5.90277777777778 0  7.5 0  C 9.09722222222222 0  10.46875 0.53125  11.6145833333333 1.59375  C 12.7604166666667 2.65625  13.3333333333333 3.9280303030303  13.3333333333333 5.40909090909091  L 13.3333333333333 7.72727272727273  L 13.75 7.72727272727273  C 14.0972222222222 7.72727272727273  14.3923611111111 7.83996212121212  14.6354166666667 8.06534090909091  Z " fill-rule="nonzero" fill="#0095d7" stroke="none" transform="matrix(1 0 0 1 43 267 )" />
  </g>
</svg>